<svg width="13" height="12" viewBox="0 0 13 12" fill="none" xmlns="http://www.w3.org/2000/svg">
<path d="M12.1064 5.22168C12.1064 2.25488 9.85742 0.19043 6.62402 0.19043C3.27441 0.19043 0.977539 2.50781 0.977539 5.8916C0.977539 9.38477 3.21289 11.5996 6.74023 11.5996C7.60156 11.5996 8.42871 11.4766 9.04395 11.2646V10.4033C8.61328 10.6016 7.69043 10.7314 6.75391 10.7314C3.82812 10.7314 1.94141 8.85156 1.94141 5.93262C1.94141 3.08887 3.8623 1.05176 6.53516 1.05176C9.26953 1.05176 11.1426 2.74023 11.1426 5.20801C11.1426 6.88965 10.5889 7.97656 9.72754 7.97656C9.23535 7.97656 8.95508 7.69629 8.95508 7.21777V3.20508H7.92285V4.03906H7.81348C7.54688 3.44434 6.93164 3.0752 6.21387 3.0752C4.8125 3.0752 3.83496 4.2373 3.83496 5.89844C3.83496 7.63477 4.79199 8.80371 6.21387 8.80371C7.01367 8.80371 7.62891 8.41406 7.92285 7.7168H8.03223C8.11426 8.38672 8.73633 8.86523 9.53613 8.86523C11.1084 8.86523 12.1064 7.4502 12.1064 5.22168ZM4.92871 5.92578C4.92871 4.72949 5.46875 4.01855 6.38477 4.01855C7.31445 4.01855 7.90918 4.75684 7.90918 5.92578C7.90918 7.09473 7.30762 7.83984 6.37109 7.83984C5.47559 7.83984 4.92871 7.11523 4.92871 5.92578Z" fill="black"/>
</svg>
